<svg xmlns="http://www.w3.org/2000/svg" width="201.775" height="131.514" viewBox="0 0 201.775 131.514"><g transform="translate(-76.494 -89.081)"><path d="M200.532,207.131l-.707-.706c-1.652-1.652-1.907-2.512-1.935-3.2l-.305-8a3.314,3.314,0,0,0-.66-1.9,1.96,1.96,0,0,1,.916-.18,2.027,2.027,0,0,1,1.9,2.1c.019.425.3,8.5.46,10.909A2.05,2.05,0,0,0,200.532,207.131Zm.323-7.474.261,6.8c.028.683.284,1.543,1.935,3.195l1.335,1.336a4.22,4.22,0,0,1-.951-2.376c-.048-1.137-.367-7.733-.423-8.923a2.025,2.025,0,0,0-1.9-2.1,1.815,1.815,0,0,0-.353.016C200.76,197.83,200.824,198.909,200.855,199.657Zm15.073,38.265c.789-2.437,2.277-7.094,3.26-10.586,1.678-5.96-.138-9.49-2.717-12.067-.122-.131-7.834-6.917-7.834-6.917a2.162,2.162,0,0,0-3.059,0,2.067,2.067,0,0,0-.018,3.071l4.976,4.978c1.145,1.143.1,2.131-1.015,1.015s-10.343-10.343-10.343-10.343c-1.58-1.58-2.153-2.667-2.2-3.8s-.257-6.794-.306-8.007a2,2,0,1,0-4-.2s-.222,5.8-.52,9.6c-.191,2.445-.271,3.786,3.269,7.327l9.14,9.141c1.871,1.87,1.924,3.407.975,6.633a2.4,2.4,0,0,0,.821,2.764c1.024,1.024,5.833,5.831,7.986,7.988C214.985,239.16,215.6,238.936,215.929,237.922Z" transform="translate(-54.727 -49.274)" fill="#f8820a"></path><path d="M271.626,206.161c.154-2.412.44-10.484.459-10.909a2.026,2.026,0,0,1,1.9-2.1,1.976,1.976,0,0,1,.919.18,3.281,3.281,0,0,0-.662,1.9l-.3,8c-.028.686-.284,1.546-1.938,3.2,0,0-.453.454-.706.706A2.072,2.072,0,0,0,271.626,206.161Zm-.558-8.562a1.851,1.851,0,0,0-.356-.016,2.028,2.028,0,0,0-1.9,2.1c-.055,1.19-.374,7.787-.422,8.923a4.21,4.21,0,0,1-.95,2.376l1.335-1.336c1.651-1.652,1.909-2.512,1.935-3.195l.259-6.8C271,198.909,271.069,197.83,271.069,197.6Zm-13.582,40.915c2.154-2.158,6.962-6.964,7.986-7.988a2.4,2.4,0,0,0,.819-2.764c-.948-3.227-.895-4.763.979-6.633l9.141-9.141c3.539-3.541,3.457-4.882,3.266-7.327-.3-3.8-.52-9.6-.52-9.6a2,2,0,0,0-4,.2c-.049,1.213-.257,6.867-.3,8.007s-.623,2.225-2.2,3.8c0,0-9.227,9.229-10.345,10.343s-2.159.128-1.015-1.015l4.977-4.978a2.066,2.066,0,0,0-.021-3.071,2.159,2.159,0,0,0-3.056,0s-7.712,6.786-7.836,6.917c-2.578,2.577-4.393,6.107-2.714,12.067.982,3.492,2.469,8.149,3.259,10.586C256.226,238.936,256.841,239.16,257.486,238.515Z" transform="translate(-83.096 -49.274)" fill="#f8820a"></path><g transform="translate(127.769 99.602)"><path d="M177.625,131.285a14.092,14.092,0,0,0,9.827,2.808s2.665-.342,1.956-2.808c-.033-.226-.928-2.117-3.569-1.1a22.687,22.687,0,0,1-2.408.889,13.569,13.569,0,0,1-2.363.442,14.82,14.82,0,0,1-3.443-.235Z" transform="translate(-175.654 -118.924)" fill="#465c0f"></path><path d="M234.259,153.642a15.855,15.855,0,0,1-.635,11.283s-1.3,2.664-3.569,1.041c-.22-.117-1.836-1.725.148-4.124a25.874,25.874,0,0,0,1.775-2.2,15.857,15.857,0,0,0,1.3-2.311,17.048,17.048,0,0,0,.985-3.686Z" transform="translate(-200.086 -130.171)" fill="#465c0f"></path><path d="M207.881,164.505a16.06,16.06,0,0,0,7.528,8.512s2.69,1.313,3.463-1.345c.105-.224.371-2.477-2.687-3.159a25.714,25.714,0,0,1-2.767-.661,15.863,15.863,0,0,1-2.464-1.038,17.064,17.064,0,0,1-3.073-2.308Z" transform="translate(-189.98 -135.315)" fill="#465c0f"></path><path d="M228.05,139.5a15.244,15.244,0,0,1,1.054,10.75s-.832,2.714-3.189,1.527c-.224-.08-1.973-1.352-.462-3.919a24.477,24.477,0,0,0,1.332-2.35,14.39,14.39,0,0,0,.878-2.378,16.249,16.249,0,0,0,.386-3.631Z" transform="translate(-198.012 -123.477)" fill="#465c0f"></path><path d="M203.064,155.005a15.135,15.135,0,0,0,8.514,6.6s2.733.737,2.982-1.9c.054-.23-.1-2.394-3.062-2.47a24.725,24.725,0,0,1-2.694-.108,14.6,14.6,0,0,1-2.471-.518,16.017,16.017,0,0,1-3.269-1.6Z" transform="translate(-187.699 -130.817)" fill="#465c0f"></path><path d="M218.531,125.663a15.372,15.372,0,0,1,3.213,10.345s-.254,2.843-2.792,2.178c-.23-.026-2.2-.911-1.246-3.757a25.006,25.006,0,0,0,.821-2.589,14.813,14.813,0,0,0,.365-2.526,16.653,16.653,0,0,0-.361-3.651Z" transform="translate(-194.51 -116.923)" fill="#465c0f"></path><path d="M195.554,146.823a14.889,14.889,0,0,0,9.624,4.678s2.807.139,2.513-2.507c.006-.237-.582-2.335-3.486-1.779a23.637,23.637,0,0,1-2.639.465,13.933,13.933,0,0,1-2.509.016,15.84,15.84,0,0,1-3.5-.873Z" transform="translate(-184.143 -126.943)" fill="#465c0f"></path><path d="M206.041,115.952a15.353,15.353,0,0,1,5.237,9.491s.332,2.854-2.275,2.737c-.229.019-2.316-.436-1.974-3.432a25.928,25.928,0,0,0,.269-2.724,15.359,15.359,0,0,0-.158-2.557,16.7,16.7,0,0,0-1.1-3.515Z" transform="translate(-189.108 -112.325)" fill="#465c0f"></path><path d="M186.976,138.9a14.709,14.709,0,0,0,10.083,3.462s2.8-.209,2.185-2.809c-.023-.235-.855-2.248-3.659-1.336a24.972,24.972,0,0,1-2.557.792,14,14,0,0,1-2.482.324,15.618,15.618,0,0,1-3.57-.432Z" transform="translate(-180.081 -122.758)" fill="#465c0f"></path><path d="M192.879,109.064a14.687,14.687,0,0,1,6.207,8.339s.684,2.675-1.79,2.917c-.22.052-2.258-.1-2.324-3,0,0,.025-1.3-.1-2.637a15.518,15.518,0,0,0-.489-2.419,15.951,15.951,0,0,0-1.5-3.2Z" transform="translate(-182.876 -109.064)" fill="#465c0f"></path><path d="M173.881,118.171a13,13,0,0,1,9.433,1.644s2.168,1.4.691,3.222c-.117.174-1.553,1.429-3.458-.534a24.786,24.786,0,0,0-1.753-1.76,13.89,13.89,0,0,0-1.871-1.352,14.592,14.592,0,0,0-3.042-1.22Z" transform="translate(-173.881 -113.247)" fill="#465c0f"></path></g><g transform="translate(157.637 114.729)"><path d="M297.217,166.333a18.093,18.093,0,0,1-12.619,3.6s-3.424-.443-2.511-3.608c.041-.29,1.191-2.72,4.58-1.406a28.8,28.8,0,0,0,3.1,1.142,17.316,17.316,0,0,0,3.032.567,19.165,19.165,0,0,0,4.422-.3Z" transform="translate(-254.91 -150.456)" fill="#465c0f"></path><path d="M231.566,195.042a20.348,20.348,0,0,0,.818,14.485s1.668,3.422,4.579,1.34c.283-.151,2.358-2.217-.19-5.3a32.99,32.99,0,0,1-2.279-2.828,20.275,20.275,0,0,1-1.664-2.969,21.8,21.8,0,0,1-1.264-4.73Z" transform="translate(-230.608 -164.9)" fill="#465c0f"></path><path d="M259.353,208.989a20.63,20.63,0,0,1-9.669,10.928s-3.45,1.686-4.447-1.724c-.132-.287-.474-3.181,3.451-4.059a33.646,33.646,0,0,0,3.554-.849,20,20,0,0,0,3.163-1.334,21.984,21.984,0,0,0,3.948-2.963Z" transform="translate(-237.502 -171.504)" fill="#465c0f"></path><path d="M240.673,176.882a19.576,19.576,0,0,0-1.353,13.8s1.067,3.486,4.095,1.962c.286-.1,2.533-1.739.592-5.032A31.613,31.613,0,0,1,242.3,184.6a18.751,18.751,0,0,1-1.127-3.055,21.042,21.042,0,0,1-.5-4.662Z" transform="translate(-234.408 -156.302)" fill="#465c0f"></path><path d="M265.013,196.786a19.437,19.437,0,0,1-10.932,8.473s-3.512.944-3.829-2.444c-.07-.3.122-3.077,3.931-3.173a31.606,31.606,0,0,0,3.459-.14,18.433,18.433,0,0,0,3.172-.664,20.528,20.528,0,0,0,4.2-2.052Z" transform="translate(-239.905 -165.726)" fill="#465c0f"></path><path d="M253.439,159.112a19.748,19.748,0,0,0-4.126,13.285s.327,3.651,3.585,2.8c.3-.035,2.819-1.171,1.6-4.824a32.429,32.429,0,0,1-1.051-3.328,18.572,18.572,0,0,1-.468-3.24,21.368,21.368,0,0,1,.461-4.69Z" transform="translate(-239.447 -147.888)" fill="#465c0f"></path><path d="M273.9,186.28a19.133,19.133,0,0,1-12.359,6.01s-3.6.18-3.227-3.221c-.009-.306.747-3,4.476-2.283a30.385,30.385,0,0,0,3.39.6,18.394,18.394,0,0,0,3.22.024,20.347,20.347,0,0,0,4.5-1.125Z" transform="translate(-243.714 -160.752)" fill="#465c0f"></path><path d="M268.411,146.644a19.718,19.718,0,0,0-6.726,12.186s-.429,3.665,2.918,3.517c.295.024,2.973-.561,2.538-4.407a32.5,32.5,0,0,1-.345-3.5,19.485,19.485,0,0,1,.2-3.284,21.27,21.27,0,0,1,1.413-4.514Z" transform="translate(-245.314 -141.984)" fill="#465c0f"></path><path d="M284.687,176.118a18.879,18.879,0,0,1-12.946,4.442s-3.592-.27-2.807-3.608c.027-.3,1.1-2.886,4.7-1.713a31.31,31.31,0,0,0,3.284,1.015,18.128,18.128,0,0,0,3.186.417,20.272,20.272,0,0,0,4.587-.553Z" transform="translate(-248.702 -155.38)" fill="#465c0f"></path><path d="M284.106,137.794a18.86,18.86,0,0,0-7.969,10.709s-.881,3.435,2.3,3.748c.28.066,2.9-.125,2.982-3.852,0,0-.033-1.676.13-3.387a19.767,19.767,0,0,1,.628-3.11,20.5,20.5,0,0,1,1.93-4.109Z" transform="translate(-252.113 -137.794)" fill="#465c0f"></path><path d="M303.485,149.492a16.677,16.677,0,0,0-12.112,2.112s-2.786,1.792-.887,4.133c.149.226,1.994,1.842,4.439-.683a31.2,31.2,0,0,1,2.255-2.259,17.859,17.859,0,0,1,2.4-1.735,18.636,18.636,0,0,1,3.906-1.568Z" transform="translate(-258.646 -143.167)" fill="#465c0f"></path></g><g transform="translate(164.056 89.081)"><path d="M242.8,98.794a10.2,10.2,0,0,0,4.342,5.985,1.574,1.574,0,0,0,2.369-.728c.08-.141.415-1.616-1.545-2.214a16.174,16.174,0,0,1-1.767-.57,9.736,9.736,0,0,1-1.542-.8,10.782,10.782,0,0,1-1.858-1.669Z" transform="translate(-242.8 -93.68)" fill="#465c0f"></path><path d="M261.064,138.108a11.471,11.471,0,0,1-5.4,6.14s-1.93.937-2.5-1c-.073-.166-.276-1.8,1.925-2.283a18.625,18.625,0,0,0,1.995-.462,11.212,11.212,0,0,0,1.769-.738,12.255,12.255,0,0,0,2.205-1.657Z" transform="translate(-247.691 -112.295)" fill="#465c0f"></path><path d="M245.285,130.495a11.627,11.627,0,0,0,.488,8.208s.944,1.945,2.573.779c.158-.081,1.314-1.245-.12-3a18.3,18.3,0,0,1-1.283-1.611,11.589,11.589,0,0,1-.938-1.691,12.312,12.312,0,0,1-.72-2.687Z" transform="translate(-243.728 -108.69)" fill="#465c0f"></path><path d="M263.931,126.552a11.026,11.026,0,0,1-4.2,6.59s-1.682,1.175-2.5-.554c-.091-.144-.52-1.648,1.488-2.437a17.752,17.752,0,0,0,1.806-.741,10.564,10.564,0,0,0,1.56-.963,11.707,11.707,0,0,0,1.842-1.895Z" transform="translate(-249.587 -106.823)" fill="#465c0f"></path><path d="M247.184,122.937a10.954,10.954,0,0,0,1.9,7.557s1.226,1.64,2.546.247c.134-.11,1.016-1.406-.64-2.774a18.264,18.264,0,0,1-1.485-1.263,10.676,10.676,0,0,1-1.177-1.4,11.478,11.478,0,0,1-1.148-2.368Z" transform="translate(-244.838 -105.111)" fill="#465c0f"></path><path d="M264.687,113.567a11.13,11.13,0,0,1-2.789,7.327s-1.415,1.506-2.564-.006c-.117-.118-.841-1.5.969-2.7a17.81,17.81,0,0,0,1.623-1.109,10.464,10.464,0,0,0,1.336-1.274,12.126,12.126,0,0,0,1.426-2.242Z" transform="translate(-250.514 -100.675)" fill="#465c0f"></path><path d="M246.632,114.925a10.779,10.779,0,0,0,3.392,6.961,1.627,1.627,0,0,0,2.55-.306c.109-.132.709-1.59-1.191-2.569a17.144,17.144,0,0,1-1.71-.912,10.238,10.238,0,0,1-1.435-1.111,11.471,11.471,0,0,1-1.606-2.062Z" transform="translate(-244.614 -101.318)" fill="#465c0f"></path><path d="M262.6,102.034a11.1,11.1,0,0,1-1.253,7.739s-1.085,1.772-2.517.545c-.138-.092-1.125-1.28.408-2.835a18.794,18.794,0,0,0,1.369-1.433,10.932,10.932,0,0,0,1.051-1.525,12.032,12.032,0,0,0,.942-2.492Z" transform="translate(-250.18 -95.214)" fill="#465c0f"></path><path d="M244.918,107.058a10.639,10.639,0,0,0,4.193,6.473,1.634,1.634,0,0,0,2.5-.624c.092-.144.518-1.663-1.487-2.393a17.645,17.645,0,0,1-1.807-.691,10.4,10.4,0,0,1-1.559-.923,11.3,11.3,0,0,1-1.839-1.842Z" transform="translate(-243.803 -97.593)" fill="#465c0f"></path><path d="M259.185,92.237A10.617,10.617,0,0,1,259,99.755s-.8,1.83-2.323.861c-.147-.067-1.243-1.061.015-2.744a18.58,18.58,0,0,0,1.121-1.547,10.944,10.944,0,0,0,.8-1.595,11.6,11.6,0,0,0,.572-2.493Z" transform="translate(-249.093 -90.575)" fill="#465c0f"></path><path d="M246.972,89.081a9.4,9.4,0,0,1,4.638,5.146s.613,1.761-1.045,2.142c-.146.049-1.522.122-1.73-1.847a17.8,17.8,0,0,0-.212-1.784,9.97,9.97,0,0,0-.463-1.6,10.367,10.367,0,0,0-1.189-2.053Z" transform="translate(-244.775 -89.081)" fill="#465c0f"></path></g><path d="M247.021,151.742a13.327,13.327,0,0,1-1.163,8.993l-1.09-.2c2.129-3.543,1.616-8.463,1.532-8.892,0,0-.018-.11-.024-.129,0,0,0-.038.032-.036Z" transform="translate(-79.677 -29.542)" fill="#465c0f"></path><path d="M231.389,181.076a4.661,4.661,0,0,0,1.054,5.041l1.093-.127a5.318,5.318,0,0,1-1.426-4.978.36.36,0,0,0,.025-.074s0-.023-.029-.021Z" transform="translate(-73.185 -43.483)" fill="#465c0f"></path><g transform="translate(76.494 193.661)"><path d="M76.494,295.454v-.043a7.569,7.569,0,0,1,7.765-7.7,7.683,7.683,0,0,1,5.872,2.3l-2.084,2.4a5.5,5.5,0,0,0-3.809-1.681,4.413,4.413,0,0,0-4.319,4.638v.043a4.425,4.425,0,0,0,4.319,4.681,5.368,5.368,0,0,0,3.915-1.746l2.084,2.106a7.607,7.607,0,0,1-6.1,2.659A7.516,7.516,0,0,1,76.494,295.454Z" transform="translate(-76.494 -287.709)" fill="#465c0f"></path><path d="M111.524,287.994h3.022l6.382,15H117.5l-1.362-3.34h-6.3l-1.362,3.34h-3.34Zm3.447,8.764-1.979-4.829-1.978,4.829Z" transform="translate(-90.059 -287.844)" fill="#465c0f"></path><path d="M139.486,288.193h6.809a5.935,5.935,0,0,1,4.34,1.512,4.674,4.674,0,0,1,1.276,3.4v.043a4.624,4.624,0,0,1-3.191,4.615l3.638,5.319h-3.829l-3.192-4.765h-2.574v4.765h-3.276Zm6.595,7.234c1.6,0,2.511-.85,2.511-2.106v-.041c0-1.4-.979-2.129-2.575-2.129h-3.254v4.276Z" transform="translate(-106.32 -287.938)" fill="#465c0f"></path><path d="M168.7,288.193h11.234v2.916h-7.978v3.02h7.019v2.916h-7.019v3.126h8.084v2.915H168.7Z" transform="translate(-120.152 -287.938)" fill="#465c0f"></path><path d="M208.822,287.994H210.4l6.787,15h-1.809l-1.744-3.935h-8.106l-1.765,3.935h-1.723Zm4.148,9.551-3.383-7.6-3.4,7.6Z" transform="translate(-135.936 -287.844)" fill="#465c0f"></path><path d="M236.379,288.193h1.574l9.381,11.935V288.193h1.639v14.893h-1.34l-9.616-12.211v12.211h-1.638Z" transform="translate(-152.198 -287.938)" fill="#465c0f"></path><path d="M268.3,288.193h5.169c4.681,0,7.914,3.213,7.914,7.4v.043c0,4.192-3.233,7.445-7.914,7.445H268.3Zm5.169,13.34c3.766,0,6.17-2.552,6.17-5.849v-.043a5.8,5.8,0,0,0-6.17-5.892h-3.488v11.784Z" transform="translate(-167.312 -287.938)" fill="#465c0f"></path><path d="M305.433,300.725l1.935-2.318a6.829,6.829,0,0,0,4.446,1.808c1.339,0,2.149-.533,2.149-1.4v-.041c0-.831-.512-1.257-3-1.894-3-.765-4.936-1.6-4.936-4.553v-.042c0-2.7,2.17-4.49,5.213-4.49a8.611,8.611,0,0,1,5.53,1.894l-1.7,2.468a6.984,6.984,0,0,0-3.871-1.468c-1.254,0-1.914.574-1.914,1.3v.041c0,.979.638,1.3,3.212,1.958,3.022.788,4.722,1.872,4.722,4.467v.043c0,2.957-2.254,4.618-5.467,4.618A9.472,9.472,0,0,1,305.433,300.725Z" transform="translate(-184.894 -287.748)" fill="#465c0f"></path><path d="M333.23,288.193h3.276v5.895h6.042v-5.895h3.276v14.893h-3.276v-5.977h-6.042v5.977H333.23Z" transform="translate(-198.056 -287.938)" fill="#465c0f"></path><path d="M367.9,287.994h3.022l6.382,15h-3.424l-1.362-3.34h-6.3l-1.362,3.34h-3.34Zm3.447,8.764-1.979-4.829-1.978,4.829Z" transform="translate(-211.449 -287.844)" fill="#465c0f"></path><path d="M395.863,288.193h6.808a5.935,5.935,0,0,1,4.34,1.512,4.675,4.675,0,0,1,1.277,3.4v.043a4.624,4.624,0,0,1-3.192,4.615l3.638,5.319H404.9l-3.192-4.765H399.14v4.765h-3.276Zm6.593,7.234c1.6,0,2.511-.85,2.511-2.106v-.041c0-1.4-.979-2.129-2.575-2.129H399.14v4.276Z" transform="translate(-227.712 -287.938)" fill="#465c0f"></path><path d="M425.074,288.193h11.234v2.916h-7.978v3.02h7.019v2.916h-7.019v3.126h8.083v2.915H425.074Z" transform="translate(-241.543 -287.938)" fill="#465c0f"></path></g><g transform="translate(78.102 214.057)"><path d="M79.549,326.655h4.543v.658H80.262v2.258h3.423v.65H80.262v2.755h-.713Z" transform="translate(-79.549 -326.545)" fill="#465c0f"></path><path d="M90.011,329.736v-.018a3.225,3.225,0,1,1,6.449-.018v.018a3.225,3.225,0,1,1-6.449.018Zm5.709,0v-.018a2.513,2.513,0,0,0-2.492-2.61,2.484,2.484,0,0,0-2.475,2.591v.018a2.514,2.514,0,0,0,2.493,2.61A2.484,2.484,0,0,0,95.72,329.736Z" transform="translate(-84.503 -326.447)" fill="#465c0f"></path><path d="M104.591,329.736v-.018a3.225,3.225,0,1,1,6.449-.018v.018a3.225,3.225,0,1,1-6.449.018Zm5.708,0v-.018a2.512,2.512,0,0,0-2.492-2.61,2.484,2.484,0,0,0-2.475,2.591v.018a2.514,2.514,0,0,0,2.493,2.61A2.483,2.483,0,0,0,110.3,329.736Z" transform="translate(-91.406 -326.447)" fill="#465c0f"></path><path d="M119.7,326.655H121.9a3.151,3.151,0,0,1,3.36,3.142v.018a3.165,3.165,0,0,1-3.36,3.161H119.7Zm2.195,5.662a2.447,2.447,0,0,0,2.62-2.483v-.018a2.462,2.462,0,0,0-2.62-2.5h-1.481v5Z" transform="translate(-98.562 -326.545)" fill="#465c0f"></path><path d="M138.262,326.655h2.692a2.32,2.32,0,0,1,1.651.559,1.4,1.4,0,0,1,.408,1.012v.018a1.526,1.526,0,0,1-1,1.462c.749.226,1.354.66,1.354,1.526v.018c0,1.084-.911,1.725-2.293,1.725h-2.809Zm2.574,2.817c.859,0,1.454-.389,1.454-1.129v-.018c0-.622-.5-1.028-1.4-1.028h-1.924v2.176Zm.253,2.863c.957,0,1.553-.423,1.553-1.129v-.018c0-.687-.578-1.084-1.68-1.084h-2v2.231Z" transform="translate(-107.349 -326.545)" fill="#465c0f"></path><path d="M152.5,326.569h.668l2.881,6.367h-.768l-.741-1.672H151.1l-.748,1.672h-.732Zm1.76,4.056-1.435-3.224-1.446,3.224Z" transform="translate(-112.726 -326.505)" fill="#465c0f"></path><path d="M164.2,326.655h.668l3.983,5.065v-5.065h.7v6.321h-.57l-4.082-5.184v5.184H164.2Z" transform="translate(-119.629 -326.545)" fill="#465c0f"></path><path d="M177.747,326.655h.713v3.773l3.631-3.773h.921l-2.71,2.764,2.827,3.558h-.893l-2.43-3.062-1.346,1.363v1.7h-.713Z" transform="translate(-126.045 -326.545)" fill="#465c0f"></path><path d="M195.225,326.655h4.543v.658h-3.829v2.258h3.422v.65h-3.422v2.755h-.714Z" transform="translate(-134.32 -326.545)" fill="#465c0f"></path><path d="M205.689,329.736v-.018a3.224,3.224,0,1,1,6.448-.018v.018a3.224,3.224,0,1,1-6.448.018Zm5.706,0v-.018a2.512,2.512,0,0,0-2.492-2.61,2.484,2.484,0,0,0-2.474,2.591v.018a2.514,2.514,0,0,0,2.492,2.61A2.482,2.482,0,0,0,211.4,329.736Z" transform="translate(-139.275 -326.447)" fill="#465c0f"></path><path d="M220.8,326.655h2.717a2.494,2.494,0,0,1,1.8.632,1.744,1.744,0,0,1,.489,1.246v.018a1.853,1.853,0,0,1-1.717,1.843l1.943,2.583h-.876l-1.834-2.457h-1.805v2.457H220.8Zm2.655,3.222c.948,0,1.625-.487,1.625-1.3v-.018c0-.776-.6-1.247-1.616-1.247h-1.95v2.565Z" transform="translate(-146.43 -326.545)" fill="#465c0f"></path><path d="M237.557,331.974l.443-.525a3.006,3.006,0,0,0,2.168.9c.848,0,1.408-.452,1.408-1.076v-.016c0-.588-.316-.921-1.644-1.2-1.454-.315-2.122-.786-2.122-1.824v-.017a1.867,1.867,0,0,1,2.077-1.725,3.3,3.3,0,0,1,2.222.776l-.415.551a2.778,2.778,0,0,0-1.824-.686c-.821,0-1.346.451-1.346,1.02v.018c0,.594.325.93,1.716,1.228,1.408.306,2.06.821,2.06,1.787v.018c0,1.084-.9,1.789-2.159,1.789A3.706,3.706,0,0,1,237.557,331.974Z" transform="translate(-154.364 -326.464)" fill="#465c0f"></path><path d="M248.792,329.736v-.018a3.224,3.224,0,1,1,6.448-.018v.018a3.224,3.224,0,1,1-6.448.018Zm5.708,0v-.018a2.513,2.513,0,0,0-2.493-2.61,2.483,2.483,0,0,0-2.474,2.591v.018a2.513,2.513,0,0,0,2.492,2.61A2.483,2.483,0,0,0,254.5,329.736Z" transform="translate(-159.684 -326.447)" fill="#465c0f"></path><path d="M263.714,330.33v-3.675h.714v3.63c0,1.364.723,2.131,1.933,2.131,1.165,0,1.9-.7,1.9-2.086v-3.675h.713v3.621a2.636,2.636,0,1,1-5.265.054Z" transform="translate(-166.749 -326.545)" fill="#465c0f"></path><path d="M278.186,327.313h-2.122v-.658h4.967v.658h-2.123v5.664h-.722Z" transform="translate(-172.597 -326.545)" fill="#465c0f"></path><path d="M288.037,326.655h.713v2.807h3.65v-2.807h.713v6.321H292.4V330.13h-3.65v2.846h-.713Z" transform="translate(-178.266 -326.545)" fill="#465c0f"></path><path d="M301.074,326.655h4.57v.65h-3.856v2.157h3.449v.652h-3.449v2.213h3.9v.649h-4.615Z" transform="translate(-184.439 -326.545)" fill="#465c0f"></path><path d="M312.565,326.655h2.719a2.49,2.49,0,0,1,1.8.632,1.747,1.747,0,0,1,.487,1.246v.018a1.851,1.851,0,0,1-1.716,1.843l1.943,2.583h-.876l-1.835-2.457h-1.805v2.457h-.714Zm2.655,3.222c.948,0,1.626-.487,1.626-1.3v-.018c0-.776-.6-1.247-1.617-1.247h-1.95v2.565Z" transform="translate(-189.88 -326.545)" fill="#465c0f"></path><path d="M324.965,326.655h.669l3.984,5.065v-5.065h.7v6.321h-.57l-4.082-5.184v5.184h-.7Z" transform="translate(-195.751 -326.545)" fill="#465c0f"></path><path d="M343.131,329.736v-.018a3.185,3.185,0,0,1,3.2-3.27,3.293,3.293,0,0,1,2.466,1l-.487.524a2.747,2.747,0,0,0-1.987-.866,2.477,2.477,0,0,0-2.447,2.591v.018a2.5,2.5,0,0,0,2.447,2.61,2.75,2.75,0,0,0,2.042-.913l.469.461a3.3,3.3,0,0,1-2.53,1.11A3.152,3.152,0,0,1,343.131,329.736Z" transform="translate(-204.352 -326.447)" fill="#465c0f"></path><path d="M355.448,329.736v-.018a3.224,3.224,0,1,1,6.447-.018v.018a3.223,3.223,0,1,1-6.447.018Zm5.706,0v-.018a2.512,2.512,0,0,0-2.492-2.61,2.484,2.484,0,0,0-2.474,2.591v.018a2.513,2.513,0,0,0,2.492,2.61A2.482,2.482,0,0,0,361.154,329.736Z" transform="translate(-210.184 -326.447)" fill="#465c0f"></path><path d="M370.555,326.655h.714v5.662h3.56v.66h-4.274Z" transform="translate(-217.337 -326.545)" fill="#465c0f"></path><path d="M379.957,329.736v-.018a3.225,3.225,0,1,1,6.449-.018v.018a3.225,3.225,0,1,1-6.449.018Zm5.708,0v-.018a2.513,2.513,0,0,0-2.492-2.61A2.484,2.484,0,0,0,380.7,329.7v.018a2.514,2.514,0,0,0,2.494,2.61A2.484,2.484,0,0,0,385.665,329.736Z" transform="translate(-221.789 -326.447)" fill="#465c0f"></path><path d="M395.069,326.655h2.719a2.489,2.489,0,0,1,1.8.632,1.747,1.747,0,0,1,.488,1.246v.018a1.851,1.851,0,0,1-1.717,1.843l1.944,2.583h-.876l-1.835-2.457h-1.8v2.457h-.713Zm2.655,3.222c.947,0,1.626-.487,1.626-1.3v-.018c0-.776-.6-1.247-1.617-1.247h-1.95v2.565Z" transform="translate(-228.945 -326.545)" fill="#465c0f"></path><path d="M409.321,326.569h.668l2.881,6.367H412.1l-.74-1.672h-3.441l-.751,1.672h-.73Zm1.762,4.056-1.437-3.224-1.444,3.224Z" transform="translate(-234.33 -326.505)" fill="#465c0f"></path><path d="M421.02,326.655h2.2a3.15,3.15,0,0,1,3.359,3.142v.018a3.164,3.164,0,0,1-3.359,3.161h-2.2Zm2.2,5.662a2.446,2.446,0,0,0,2.618-2.483v-.018a2.461,2.461,0,0,0-2.618-2.5h-1.482v5Z" transform="translate(-241.232 -326.545)" fill="#465c0f"></path><path d="M433.9,329.736v-.018a3.225,3.225,0,1,1,6.449-.018v.018a3.225,3.225,0,1,1-6.449.018Zm5.708,0v-.018a2.513,2.513,0,0,0-2.493-2.61,2.484,2.484,0,0,0-2.475,2.591v.018a2.514,2.514,0,0,0,2.5,2.61A2.484,2.484,0,0,0,439.609,329.736Z" transform="translate(-247.331 -326.447)" fill="#465c0f"></path></g><g transform="translate(272.933 193.724)"><path d="M449.694,290.411a1.312,1.312,0,0,0,.691.2c.4,0,.629-.205.629-.513,0-.276-.161-.441-.567-.593-.49-.178-.793-.436-.793-.856a.865.865,0,0,1,.971-.816,1.347,1.347,0,0,1,.66.147l-.107.316a1.119,1.119,0,0,0-.566-.142c-.41,0-.566.245-.566.45,0,.281.182.419.6.58.508.2.763.441.763.883,0,.463-.339.869-1.048.869a1.555,1.555,0,0,1-.767-.2Z" transform="translate(-449.591 -287.83)" fill="#465c0f"></path><path d="M456.513,289.608c-.023-.419-.05-.927-.05-1.3h-.008c-.107.348-.227.727-.379,1.142l-.531,1.458h-.294l-.49-1.432c-.143-.428-.259-.811-.344-1.168h-.008c-.009.374-.032.874-.058,1.329l-.081,1.288h-.37l.21-3.005h.495l.513,1.454c.125.37.223.7.3,1.012h.008c.081-.3.188-.633.322-1.012l.534-1.454h.5l.187,3.005h-.383Z" transform="translate(-451.631 -287.874)" fill="#465c0f"></path></g></g></svg>